# xmcd
#
# Track frame offsets: 
#        150
#        12080
#        29495
#        42722
#        58450
#        73095
#        85042
#        100872
#        119622
#        133357
#
# Disc length: 1954 seconds
#
# Revision: 10
# Processed by: cddbd v1.5.2PL0 Copyright (c) Steve Scherf et al.
# Submitted via: ExactAudioCopy v0.95b4
#
DISCID=9607a00a
DTITLE=Tanya Tucker - Greatest Hits 1990-1992
DYEAR=1993
DGENRE=Country
TTITLE0=It's a Little Too Late
TTITLE1=Some Kind of Trouble
TTITLE2=(Without You) What Do I Do With Me
TTITLE3=Down to My Last Teardrop
TTITLE4=Don't Go Out (Duet with T. Graham Brown)
TTITLE5=Walking Shoes
TTITLE6=Oh What It Did to Me
TTITLE7=Two Sparrows in a Hurricane
TTITLE8=If Your Heart Ain't Busy Tonight
TTITLE9=It Won't Be Me
EXTD=
EXTT0=
EXTT1=
EXTT2=
EXTT3=
EXTT4=
EXTT5=
EXTT6=
EXTT7=
EXTT8=
EXTT9=
PLAYORDER=
